<?xml version="1.0" encoding="UTF-8" standalone="no"?>
<svg width="82px" height="100px" viewBox="0 0 82 100" version="1.1" xmlns="http://www.w3.org/2000/svg" xmlns:xlink="http://www.w3.org/1999/xlink" xmlns:sketch="http://www.bohemiancoding.com/sketch/ns">
    <!-- Generator: Sketch 3.0.4 (8054) - http://www.bohemiancoding.com/sketch -->
    <title>logo-footer</title>
    <desc>Created with Sketch.</desc>
    <defs></defs>
    <g id="Page-1" stroke="none" stroke-width="1" fill="none" fill-rule="evenodd" sketch:type="MSPage">
        <g id="logo-footer" sketch:type="MSLayerGroup" fill="#D3D3D3">
            <path d="M0.033,79.574 C0.033,84.873 2.683,86.69 7.449,86.69 C12.558,86.69 14.844,84.533 14.844,79.595 L14.844,70.896 L9.801,70.896 L9.801,80.107 C9.801,81.773 9.266,82.928 7.449,82.928 C5.377,82.928 5.077,81.625 5.077,80.107 L5.077,70.896 L0.033,70.896 L0.033,79.574 L0.033,79.574 Z" id="Shape" sketch:type="MSShapeGroup"></path>
            <path d="M21.994,86.284 L21.994,81.069 L21.887,78.676 L21.672,76.41 L21.716,76.41 L24.516,86.284 L28.021,86.284 L30.82,76.41 L30.864,76.41 L30.606,79.188 L30.542,81.582 L30.542,86.284 L35.074,86.284 L35.074,70.896 L28.981,70.896 L26.268,80.492 L23.554,70.896 L17.462,70.896 L17.462,86.284 L21.994,86.284 L21.994,86.284 Z" id="Shape" sketch:type="MSShapeGroup"></path>
            <path d="M42.711,81.049 L44.27,75.535 L45.895,81.049 L42.711,81.049 L42.711,81.049 Z M46.879,70.896 L41.748,70.896 L36.234,86.284 L41.172,86.284 L41.748,84.254 L46.771,84.254 L47.368,86.284 L52.392,86.284 L46.879,70.896 L46.879,70.896 Z" id="Shape" sketch:type="MSShapeGroup"></path>
            <path d="M66.216,75.363 C65.854,72.67 63.908,70.49 59.633,70.49 C55.785,70.49 52.965,72.135 52.965,75.406 C52.965,81.282 61.815,79.68 61.815,82.01 C61.815,82.737 60.981,83.143 59.72,83.143 C59.227,83.143 58.694,83.015 58.287,82.758 C57.859,82.502 57.56,82.094 57.453,81.542 L52.623,81.542 C52.73,84.318 55.381,86.69 59.441,86.69 C63.672,86.69 66.642,84.96 66.642,81.389 C66.642,75.79 57.795,77.222 57.795,74.915 C57.795,74.357 58.286,74.038 59.398,74.038 C59.889,74.038 60.338,74.123 60.701,74.315 C61.064,74.506 61.343,74.828 61.429,75.362 L66.216,75.362 L66.216,75.363 L66.216,75.363 Z" id="Shape" sketch:type="MSShapeGroup"></path>
            <path d="M81.359,75.363 C80.996,72.67 79.05,70.49 74.775,70.49 C70.929,70.49 68.108,72.135 68.108,75.406 C68.108,81.282 76.957,79.68 76.957,82.01 C76.957,82.737 76.123,83.143 74.863,83.143 C74.371,83.143 73.838,83.015 73.429,82.758 C73.001,82.502 72.702,82.094 72.595,81.542 L67.767,81.542 C67.872,84.318 70.523,86.69 74.583,86.69 C78.815,86.69 81.786,84.96 81.786,81.389 C81.786,75.79 72.938,77.222 72.938,74.915 C72.938,74.357 73.428,74.038 74.54,74.038 C75.032,74.038 75.481,74.123 75.845,74.315 C76.208,74.506 76.486,74.828 76.572,75.362 L81.359,75.362 L81.359,75.363 L81.359,75.363 Z" id="Shape" sketch:type="MSShapeGroup"></path>
            <path d="M3.649,61.457 C3.649,49.139 36.095,25.019 36.095,17.152 C36.095,14.5 32.944,13.73 29.69,13.73 C22.865,13.73 3.86,21.941 3.86,34.086 C3.86,38.533 6.695,41.014 12.05,42.211 C8.001,44.432 2.264,43.103 0.002,39.27 L0.002,67.305 L7.229,67.305 C5.079,66.066 3.649,63.741 3.649,61.457 L3.649,61.457 L3.649,61.457 Z" id="Shape" sketch:type="MSShapeGroup"></path>
            <path d="M32.314,11.849 C36.073,11.849 38.78,12.564 40.652,13.609 L28.874,0.086 L0.002,0.086 L0.002,32.015 C3.05,24.851 13.369,11.849 32.314,11.849 L32.314,11.849 L32.314,11.849 Z" id="Shape" sketch:type="MSShapeGroup"></path>
            <path d="M16.549,67.305 L30.123,67.305 L30.123,59.582 C25.71,63.061 21.072,65.916 16.549,67.305 L16.549,67.305 L16.549,67.305 Z" id="Shape" sketch:type="MSShapeGroup"></path>
            <path d="M52.91,0 L40.857,13.838 C42.993,15.219 43.856,17.057 43.856,18.606 C43.856,27.329 10.781,55.212 10.781,62.909 C10.781,64.621 11.621,64.962 13.51,64.962 C28.736,64.962 54.999,29.48 62.867,19.558 C66.017,19.044 69.75,19.44 73.109,19.098 C66.42,26.364 49,53.928 49,62.994 C49,65.304 50.68,66.502 53.2,66.502 C58.137,66.502 64.646,58.975 64.646,50.251 C66.431,51.534 67.271,53.417 67.271,55.297 C67.271,60.197 63.652,64.58 58.82,66.87 L81.783,66.87 L81.783,0 L52.91,0 L52.91,0 Z" id="Shape" sketch:type="MSShapeGroup"></path>
            <path d="M0,89.525 L3.31,89.525 L3.31,97.133 L8.063,97.133 L8.063,99.756 L0,99.756 L0,89.525 L0,89.525 Z" id="Shape" sketch:type="MSShapeGroup"></path>
            <path d="M18.052,97.449 C18.894,97.449 20.188,96.919 20.188,94.64 C20.188,92.361 18.894,91.831 18.052,91.831 C17.209,91.831 15.915,92.361 15.915,94.64 C15.915,96.919 17.209,97.449 18.052,97.449 L18.052,97.449 L18.052,97.449 Z M18.052,89.281 C21.316,89.281 23.498,91.517 23.498,94.64 C23.498,97.764 21.316,99.999 18.052,99.999 C14.787,99.999 12.606,97.764 12.606,94.64 C12.606,91.518 14.787,89.281 18.052,89.281 L18.052,89.281 L18.052,89.281 Z" id="Shape" sketch:type="MSShapeGroup"></path>
            <path d="M39.067,99.756 L35.848,99.756 L34.689,93.522 L34.659,93.522 L33.531,99.756 L30.297,99.756 L27.378,89.525 L30.627,89.525 L31.936,95.844 L31.966,95.844 L33.26,89.525 L36.179,89.525 L37.442,95.93 L37.473,95.93 L38.812,89.525 L42.076,89.525 L39.067,99.756 L39.067,99.756 Z" id="Shape" sketch:type="MSShapeGroup"></path>
            <path d="M46.438,89.525 L55.328,89.525 L55.328,92.147 L49.746,92.147 L49.746,93.423 L54.816,93.423 L54.816,95.858 L49.746,95.858 L49.746,97.133 L55.494,97.133 L55.494,99.756 L46.438,99.756 L46.438,89.525 L46.438,89.525 Z" id="Shape" sketch:type="MSShapeGroup"></path>
            <path d="M60.638,89.525 L63.947,89.525 L63.947,97.133 L68.701,97.133 L68.701,99.756 L60.638,99.756 L60.638,89.525 L60.638,89.525 Z" id="Shape" sketch:type="MSShapeGroup"></path>
            <path d="M73.621,89.525 L76.93,89.525 L76.93,97.133 L81.684,97.133 L81.684,99.756 L73.621,99.756 L73.621,89.525 L73.621,89.525 Z" id="Shape" sketch:type="MSShapeGroup"></path>
        </g>
    </g>
</svg>